<?xml version="1.0" encoding="UTF-8"?>
<svg version="1.1" xmlns="http://www.w3.org/2000/svg" width="512" height="512">
<path d="M0 0 C168.96 0 337.92 0 512 0 C512 168.96 512 337.92 512 512 C343.04 512 174.08 512 0 512 C0 343.04 0 174.08 0 0 Z " fill="#2196F3" transform="translate(0,0)"/>
<path d="M0 0 C2.70308194 0.01051975 5.40564504 -0.00893587 8.10865498 -0.02796173 C11.36272427 -0.04589729 14.61664196 -0.03335225 17.87072754 -0.0234375 C19.67069939 -0.03558289 19.67069939 -0.03558289 21.5070343 -0.04797363 C27.82799411 0.02322122 31.96252806 0.11999507 36.69494629 4.5078125 C39.12088639 8.14672266 38.96919275 9.91736444 39.01721191 14.25488281 C39.03210663 15.27742912 39.03210663 15.27742912 39.04730225 16.32063293 C39.07650856 18.57577563 39.09014434 20.83063675 39.10119629 23.0859375 C39.11270459 24.65671799 39.12421999 26.22749842 39.13574219 27.79827881 C39.15675321 31.09355984 39.16844352 34.38874345 39.17541504 37.68408203 C39.1863677 41.89548249 39.23438512 46.10558404 39.29135895 50.31657791 C39.328717 53.56294437 39.33902842 56.80900167 39.34208679 60.05556488 C39.34812012 61.60727775 39.36411115 63.15898644 39.39045715 64.71048737 C39.60507332 78.3237906 39.60507332 78.3237906 36.36584473 82.96484375 C32.0435937 86.87427583 26.83354894 86.42893149 21.30432129 86.3046875 C20.20452942 86.30986389 19.10473755 86.31504028 17.97161865 86.32037354 C14.46181141 86.33225179 10.9545144 86.29779797 7.44494629 86.2578125 C3.95016927 86.23898964 0.45594158 86.23036665 -3.03887939 86.23809814 C-5.20937615 86.24075219 -7.37997437 86.22733805 -9.55023193 86.19500732 C-20.39349026 86.16467806 -28.77524018 88.50464788 -36.93005371 95.8828125 C-45.70740745 105.58409822 -46.74750382 116.16886122 -46.81677246 128.83203125 C-46.83472366 130.05944534 -46.85267487 131.28685944 -46.87117004 132.5514679 C-46.92491237 136.43271554 -46.95905329 140.31384277 -46.99255371 144.1953125 C-47.02575856 146.84311558 -47.0602511 149.49090285 -47.09606934 152.13867188 C-47.180618 158.59494399 -47.24911912 165.05123242 -47.30505371 171.5078125 C-46.32865936 171.49670944 -45.35226501 171.48560638 -44.34628296 171.47416687 C-35.1359495 171.37272292 -25.92572968 171.29781463 -16.71496391 171.24875164 C-11.97978267 171.22267947 -7.24505313 171.18732516 -2.51013184 171.13061523 C2.06105857 171.07621015 6.63181506 171.04637405 11.20330429 171.03342628 C12.94563501 171.02420161 14.68794251 171.00618752 16.43008804 170.97916222 C18.87452387 170.94275735 21.31717666 170.93787169 23.76184082 170.94018555 C24.83754585 170.91322098 24.83754585 170.91322098 25.9349823 170.88571167 C31.58643719 170.94343265 33.87058328 172.64941423 37.69494629 176.5078125 C39.80632749 180.7305749 38.90391254 185.30229103 37.5526123 189.65356445 C37.0289884 191.18819191 36.49374889 192.71888997 35.94885254 194.24609375 C35.5190358 195.49217407 35.5190358 195.49217407 35.08053589 196.76342773 C34.15007898 199.45286789 33.20441995 202.13664809 32.25744629 204.8203125 C31.6121922 206.66858337 30.96774609 208.5171365 30.32409668 210.3659668 C29.35907702 213.13643349 28.39292411 215.90646246 27.42204285 218.67488098 C25.53874529 224.05005858 23.70773403 229.43829768 21.93713379 234.8515625 C21.5406665 236.04869873 21.14419922 237.24583496 20.73571777 238.47924805 C20.02019386 240.64608689 19.31587326 242.81666992 18.62487793 244.99145508 C18.30639893 245.94173584 17.98791992 246.8920166 17.65979004 247.87109375 C17.39802979 248.67844971 17.13626953 249.48580566 16.86657715 250.31762695 C15.69494629 252.5078125 15.69494629 252.5078125 10.69494629 256.5078125 C-8.11505371 256.5078125 -26.92505371 256.5078125 -46.30505371 256.5078125 C-46.30505371 319.8678125 -46.30505371 383.2278125 -46.30505371 448.5078125 C-74.68505371 448.5078125 -103.06505371 448.5078125 -132.30505371 448.5078125 C-132.30505371 385.1478125 -132.30505371 321.7878125 -132.30505371 256.5078125 C-150.45505371 256.5078125 -168.60505371 256.5078125 -187.30505371 256.5078125 C-194.44360718 252.93853576 -194.44360718 252.93853576 -196.30505371 248.5078125 C-196.69273376 245.32740784 -196.69273376 245.32740784 -196.70910645 241.70141602 C-196.7159697 241.03732727 -196.72283295 240.37323853 -196.72990417 239.68902588 C-196.74813065 237.50470291 -196.7443409 235.32110108 -196.73864746 233.13671875 C-196.74321141 231.6112393 -196.74851762 230.0857619 -196.75453186 228.56028748 C-196.76345486 225.36684809 -196.76104938 222.17365889 -196.75109863 218.98022461 C-196.73961183 214.89681965 -196.75981919 210.81427984 -196.78901577 206.7309885 C-196.80740184 203.58158422 -196.80708055 200.43238633 -196.80137825 197.28294182 C-196.80122532 195.77791061 -196.80724651 194.27286515 -196.81966972 192.76788521 C-196.83462414 190.65924655 -196.82387291 188.55219407 -196.8067627 186.44360352 C-196.80659653 185.24623062 -196.80643036 184.04885773 -196.80625916 182.81520081 C-196.19838208 178.80390057 -194.82533889 176.65388392 -192.30505371 173.5078125 C-188.87817623 171.22322751 -187.66565061 171.26329798 -183.64025879 171.28076172 C-182.47928177 171.28091278 -181.31830475 171.28106384 -180.12214661 171.28121948 C-178.86895126 171.29154205 -177.61575592 171.30186462 -176.32458496 171.3125 C-175.0414592 171.3153299 -173.75833344 171.31815979 -172.43632507 171.32107544 C-169.02829169 171.32870453 -165.6204293 171.34834663 -162.21246338 171.3704834 C-158.73358473 171.39095753 -155.2546784 171.4000805 -151.77575684 171.41015625 C-144.95211897 171.43159332 -138.12859456 171.46572045 -131.30505371 171.5078125 C-131.31393616 170.67303879 -131.3228186 169.83826508 -131.33197021 168.97819519 C-131.41288268 161.02273733 -131.47340107 153.06742214 -131.5123024 145.11164379 C-131.53297583 141.02371022 -131.56091096 136.93612299 -131.60681152 132.84838867 C-132.06147467 91.20458871 -132.06147467 91.20458871 -123.05505371 71.5703125 C-122.66519287 70.69334717 -122.27533203 69.81638184 -121.87365723 68.9128418 C-118.67495787 61.90835756 -114.98882675 55.63998122 -110.30505371 49.5078125 C-109.70435059 48.68796875 -109.10364746 47.868125 -108.48474121 47.0234375 C-100.4066032 36.41031894 -90.75423886 26.43545767 -79.30505371 19.5078125 C-78.73448242 19.1576709 -78.16391113 18.8075293 -77.5760498 18.44677734 C-52.75162713 3.34884523 -28.84541431 -0.19780116 0 0 Z " fill="#F9F9F9" transform="translate(409.3050537109375,63.4921875)"/>
<path d="M0 0 C0.33 0 0.66 0 1 0 C1 14.19 1 28.38 1 43 C-13.19 43 -27.38 43 -42 43 C-38.88277889 41.44138945 -36.21641788 40.40841447 -32.9375 39.375 C-19.10842922 34.37809576 -9.35087064 23.96713307 -3.1875 10.88671875 C-1.70136022 7.27403027 -0.7369242 3.83200584 0 0 Z " fill="#FFFFFF" transform="translate(511,469)"/>
<path d="M0 0 C1.55861055 3.11722111 2.59158553 5.78358212 3.625 9.0625 C8.62190424 22.89157078 19.03286693 32.64912936 32.11328125 38.8125 C35.72596973 40.29863978 39.16799416 41.2630758 43 42 C43 42.33 43 42.66 43 43 C28.81 43 14.62 43 0 43 C0 28.81 0 14.62 0 0 Z " fill="#FFFFFF" transform="translate(0,469)"/>
<path d="M0 0 C14.19 0 28.38 0 43 0 C43 14.19 43 28.38 43 43 C41.44138945 39.88277889 40.40841447 37.21641788 39.375 33.9375 C34.37809576 20.10842922 23.96713307 10.35087064 10.88671875 4.1875 C7.27403027 2.70136022 3.83200584 1.7369242 0 1 C0 0.67 0 0.34 0 0 Z " fill="#FFFFFF" transform="translate(469,0)"/>
<path d="M0 0 C14.19 0 28.38 0 43 0 C39.88277889 1.55861055 37.21641788 2.59158553 33.9375 3.625 C20.10842922 8.62190424 10.35087064 19.03286693 4.1875 32.11328125 C2.70136022 35.72596973 1.7369242 39.16799416 1 43 C0.67 43 0.34 43 0 43 C0 28.81 0 14.62 0 0 Z " fill="#FFFFFF" transform="translate(0,0)"/>
</svg>
