<?xml version="1.0" encoding="UTF-8"?>
<svg version="1.1" xmlns="http://www.w3.org/2000/svg" width="512" height="512">
<path d="M0 0 C2.97248953 -0.00071823 5.94497465 -0.00286694 8.91746306 -0.00549722 C19.34807218 -0.01470962 29.77866864 -0.01883751 40.20928168 -0.01804566 C49.8333615 -0.01744681 59.45738493 -0.02797144 69.08145052 -0.04378933 C77.42455823 -0.05699842 85.76764783 -0.062224 94.11076587 -0.06159025 C99.05787865 -0.06133904 104.00494123 -0.06397551 108.95204329 -0.0747683 C166.78473744 -0.19200503 224.64118845 0.48042364 268.31645942 43.68678832 C276.50612302 51.96773798 283.08668175 59.95467675 288.76958442 70.16725707 C289.36513129 71.22299926 289.96067817 72.27874145 290.57427192 73.36647582 C308.35385305 106.75257817 309.92757868 145.02770524 309.91484809 182.02004027 C309.91785216 183.80518196 309.92125747 185.59032301 309.9250257 187.37546325 C309.93374577 192.16133524 309.93619875 196.94718929 309.93684149 201.73306847 C309.93755917 204.74323447 309.9397069 207.75339611 309.94233871 210.76356101 C309.95155439 221.32268978 309.95567859 231.88180605 309.95488715 242.44093871 C309.95428826 252.18941741 309.96481288 261.93784045 309.98063082 271.68630511 C309.99383281 280.13213623 309.99906577 288.57794945 309.99843174 297.02379078 C309.99818032 302.03404351 310.00082907 307.04424671 310.01160979 312.0544889 C310.12625097 369.33351653 309.24588428 427.46446423 266.51958442 470.85475707 C259.7645374 477.54316893 253.0182669 483.37073501 244.76958442 488.16725707 C244.08734809 488.56992797 243.40511176 488.97259887 242.7022016 489.38747191 C201.18840619 513.52021672 154.02051559 512.32818563 107.53916883 512.33451414 C104.56667931 512.33523237 101.59419419 512.33738109 98.62170577 512.34001136 C88.19109666 512.34922376 77.7605002 512.35335165 67.32988715 512.3525598 C57.70580733 512.35196095 48.0817839 512.36248558 38.45771831 512.37830347 C30.1146106 512.39151256 21.77152101 512.39673814 13.42840296 512.3961044 C8.48129019 512.39585318 3.53422761 512.39848965 -1.41287446 512.40928245 C-116.51734116 512.64285234 -116.51734116 512.64285234 -156.7352984 472.64333129 C-158.1755853 471.221389 -159.65169051 469.83600899 -161.12885308 468.45241332 C-194.12440783 436.9818632 -201.2327232 390.32408806 -202.28837395 346.77635717 C-202.37677613 341.2892116 -202.37756781 335.80219586 -202.37567925 330.31447387 C-202.37868333 328.52933218 -202.38208864 326.74419113 -202.38585687 324.95905089 C-202.39457694 320.1731789 -202.39702991 315.38732485 -202.39767265 310.60144567 C-202.39839034 307.59127967 -202.40053807 304.58111803 -202.40316987 301.57095313 C-202.41238556 291.01182436 -202.41650976 280.45270809 -202.41571832 269.89357543 C-202.41511942 260.14509673 -202.42564404 250.39667369 -202.44146198 240.64820904 C-202.45466398 232.20237791 -202.45989694 223.75656469 -202.45926291 215.31072336 C-202.45901149 210.30047063 -202.46166023 205.29026743 -202.47244096 200.28002524 C-202.70141561 85.87571116 -202.70141561 85.87571116 -162.7064898 45.66237426 C-161.28454751 44.22208736 -159.8991675 42.74598214 -158.51557183 41.26881957 C-117.61020562 -1.61874501 -54.74965231 0.00745425 0 0 Z M-52.60541558 48.07448363 C-53.83615808 48.15402156 -55.06690057 48.23355948 -56.33493829 48.31550765 C-83.52978382 50.28495463 -107.61667614 57.58072115 -127.23041558 77.16725707 C-128.04639215 77.97163207 -128.86236871 78.77600707 -129.70307183 79.60475707 C-160.45403475 111.67437192 -155.55743932 164.17960292 -155.49906659 205.23296905 C-155.49388697 210.04163344 -155.49873031 214.85029147 -155.50183892 219.65895629 C-155.50544465 227.7235864 -155.50076997 235.7881795 -155.49115777 243.85280395 C-155.48027989 253.08403722 -155.4838079 262.31518204 -155.49481058 271.54641318 C-155.50398161 279.57209234 -155.50512152 287.59774538 -155.49993324 295.62342811 C-155.49686669 300.37305812 -155.49625285 305.12264704 -155.50300622 309.87227416 C-155.52453044 327.45317292 -155.45987789 344.99222045 -154.32318902 362.54225707 C-154.24365109 363.77299956 -154.16411317 365.00374206 -154.082165 366.27177978 C-152.15038995 392.94643754 -145.18307593 416.62449558 -126.23041558 436.16725707 C-125.69158746 436.77956176 -125.15275933 437.39186645 -124.59760308 438.02272582 C-104.75637171 459.80819846 -72.26975696 463.4101041 -44.6270268 464.83749652 C-29.1945897 465.52102529 -13.72398271 465.33234152 1.71996307 465.33451414 C4.59612139 465.33523225 7.47227514 465.33738075 10.3484323 465.34001136 C20.44072364 465.34922486 30.5330019 465.35335154 40.62529731 465.3525598 C49.93752451 465.35196102 59.24969343 465.36248403 68.56190592 465.37830347 C76.63406722 465.39151291 84.70620979 465.39673812 92.77838176 465.3961044 C97.56507003 465.39585318 102.35170642 465.39848978 107.13838363 465.40928245 C124.83516783 465.44634008 142.49092174 465.40914738 160.15703559 464.26613402 C161.99858584 464.14741203 161.99858584 464.14741203 163.87733912 464.02629161 C194.09543802 461.83337729 220.24953608 452.24049114 240.76958442 429.16725707 C243.38664678 425.63841215 245.63247733 422.00280189 247.76958442 418.16725707 C248.21817817 417.39124145 248.66677192 416.61522582 249.12895942 415.81569457 C266.56916853 383.62666664 263.08941136 341.90703242 263.03823543 306.43694091 C263.03304933 301.69014328 263.03790083 296.94335201 263.04100776 292.19655395 C263.04461171 284.23625307 263.03994364 276.27598971 263.0303266 268.31569457 C263.01944908 259.20886007 263.02297722 250.10211523 263.03397942 240.99528289 C263.04315568 233.07232708 263.0442879 225.14939771 263.03910208 217.22643828 C263.0360383 212.53994831 263.03541343 207.85349996 263.04217505 203.16701293 C263.0640899 185.52604258 262.96297721 167.93139909 261.86235785 150.31960082 C261.78281993 149.04036742 261.703282 147.76113402 261.62133384 146.44313598 C259.71908596 119.10447889 252.46361215 94.88863762 232.76958442 75.16725707 C231.96520942 74.35128051 231.16083442 73.53530395 230.33208442 72.69460082 C198.26246957 41.9436379 145.75723856 46.84023333 104.70387244 46.89860606 C99.89520805 46.90378569 95.08655001 46.89894234 90.2778852 46.89583373 C82.21325509 46.892228 74.14866199 46.89690268 66.08403754 46.90651488 C56.85280427 46.91739276 47.62165945 46.91386475 38.3904283 46.90286207 C30.36474915 46.89369104 22.3390961 46.89255113 14.31341338 46.89773941 C9.56378337 46.90080596 4.81419445 46.90141981 0.06456733 46.89466643 C-17.51633143 46.87314221 -35.05537896 46.93779476 -52.60541558 48.07448363 Z " fill="#F43931" transform="translate(202.23041558265686,-0.16725707054138184)"/>
<path d="M0 0 C2.48512095 2.18552368 4.88845843 4.43264864 7.27734375 6.72265625 C8.0971875 7.47933594 8.91703125 8.23601562 9.76171875 9.015625 C32.89384277 31.03424616 46.52180347 63.96405724 47.48046875 95.74609375 C48.02538194 133.05355813 36.27611403 166.55033036 10.27734375 193.72265625 C9.55546875 194.51929688 8.83359375 195.3159375 8.08984375 196.13671875 C-14.35187962 220.01895814 -47.36717167 232.701315 -79.7109375 233.9375 C-114.94844069 234.82137295 -148.47643094 223.22157308 -174.36328125 198.984375 C-175.141875 198.23800781 -175.92046875 197.49164063 -176.72265625 196.72265625 C-177.95242187 195.58763672 -177.95242187 195.58763672 -179.20703125 194.4296875 C-202.33915527 172.41106634 -215.96711597 139.48125526 -216.92578125 107.69921875 C-217.47033466 70.41638657 -205.73815371 36.86144807 -179.72265625 9.72265625 C-178.96597656 8.9028125 -178.20929688 8.08296875 -177.4296875 7.23828125 C-131.22283272 -41.30529865 -50.27052183 -42.04837048 0 0 Z M-141.72265625 38.72265625 C-142.48449219 39.38910156 -143.24632812 40.05554688 -144.03125 40.7421875 C-158.30437176 54.07531164 -168.87101186 75.13483535 -169.72265625 94.72265625 C-169.77421875 95.72296875 -169.82578125 96.72328125 -169.87890625 97.75390625 C-170.49278434 120.4673955 -162.7529432 141.63647053 -147.72265625 158.72265625 C-146.72298828 159.86541016 -146.72298828 159.86541016 -145.703125 161.03125 C-132.37000086 175.30437176 -111.31047715 185.87101186 -91.72265625 186.72265625 C-90.72234375 186.77421875 -89.72203125 186.82578125 -88.69140625 186.87890625 C-65.977917 187.49278434 -44.80884197 179.7529432 -27.72265625 164.72265625 C-26.96082031 164.05621094 -26.19898438 163.38976562 -25.4140625 162.703125 C-11.14094074 149.37000086 -0.57430064 128.31047715 0.27734375 108.72265625 C0.32890625 107.72234375 0.38046875 106.72203125 0.43359375 105.69140625 C1.04747184 82.977917 -6.6923693 61.80884197 -21.72265625 44.72265625 C-22.38910156 43.96082031 -23.05554688 43.19898438 -23.7421875 42.4140625 C-37.07531164 28.14094074 -58.13483535 17.57430064 -77.72265625 16.72265625 C-78.72296875 16.67109375 -79.72328125 16.61953125 -80.75390625 16.56640625 C-103.4673955 15.95252816 -124.63647053 23.6923693 -141.72265625 38.72265625 Z " fill="#FE1B16" transform="translate(340.72265625,154.27734375)"/>
<path d="M0 0 C7.3140404 5.99899071 11.93989596 13.28034683 13.03125 22.75390625 C13.38404 32.14694002 10.91180513 40.06933599 4.8203125 47.26953125 C-1.98150069 53.98150917 -9.75758597 56.93182104 -19.25 57.3125 C-28.17925044 56.82371593 -34.26436655 53.74199855 -40.9375 48 C-47.80157554 40.02283112 -50.60855713 32.32798676 -50.12890625 21.60546875 C-48.82661954 13.08018978 -44.56878443 5.90905556 -38 0.375 C-26.53771641 -7.77937625 -11.61305809 -8.11808061 0 0 Z " fill="#EC0084" transform="translate(411.25,93.6875)"/>
</svg>
